<svg width="359" height="117" viewBox="0 0 359 117" fill="none" xmlns="http://www.w3.org/2000/svg">
<path fill-rule="evenodd" clip-rule="evenodd" d="M160.66 29.4631C156.821 31.1739 152.596 32.1149 148.113 32.1149C148.113 32.1576 148.113 32.179 148.113 32.2218C148.113 37.2045 149.314 41.9092 151.416 46.0793C154.998 45.673 158.73 46.8492 161.497 49.6078C164.264 52.3451 165.422 56.0661 165.036 59.6588C169.218 61.7759 173.937 62.9521 178.935 62.9521C178.935 62.9093 178.935 62.8879 178.935 62.8452C178.956 58.4826 179.943 54.2056 181.637 50.4632C180.758 50.5915 179.857 50.6557 178.935 50.6557C168.725 50.6557 160.446 42.4011 160.446 32.2218C160.36 32.2218 160.617 29.6984 160.66 29.4631ZM148.435 62.6313C150.837 65.0264 154.74 65.0264 157.143 62.6313C159.545 60.2362 159.545 56.3441 157.143 53.949C154.74 51.5539 150.837 51.5539 148.435 53.949C146.032 56.3441 146.032 60.2362 148.435 62.6313Z" fill="url(#paint0_linear_52_1131)"/>
<path fill-rule="evenodd" clip-rule="evenodd" d="M148.435 1.81238C146.032 4.2075 146.032 8.09958 148.435 10.4947C150.837 12.8898 154.74 12.8898 157.143 10.4947C159.545 8.09958 159.545 4.2075 157.143 1.81238C154.74 -0.604127 150.837 -0.604127 148.435 1.81238ZM148.134 32.115C152.596 32.115 156.842 31.174 160.66 29.4632C167.567 26.3838 173.144 20.8664 176.254 13.9805C177.97 10.1953 178.956 5.89692 178.956 1.49161C174.495 1.49161 170.248 2.43255 166.43 4.14335C165.229 12.1413 158.88 18.4499 150.837 19.6261C149.099 23.4326 148.134 27.6669 148.134 32.115Z" fill="url(#paint1_linear_52_1131)"/>
<path fill-rule="evenodd" clip-rule="evenodd" d="M178.934 62.9522C173.936 62.9522 169.218 61.7546 165.035 59.6589L174.58 50.1426C175.974 50.4847 177.433 50.6558 178.934 50.6558C178.934 50.7414 181.465 50.4847 181.701 50.442C179.985 54.2699 179.041 58.4827 179.041 62.9522C179.02 62.9522 178.977 62.9522 178.934 62.9522Z" fill="url(#paint2_linear_52_1131)"/>
<path fill-rule="evenodd" clip-rule="evenodd" d="M197.336 34.9806C201.176 33.2698 205.401 32.3289 209.884 32.3289C209.884 32.2861 209.884 32.2647 209.884 32.222C209.884 27.2393 208.683 22.5345 206.581 18.3645C202.999 18.7708 199.267 17.5946 196.5 14.8359C193.733 12.0987 192.575 8.37766 192.961 4.78497C188.778 2.66786 184.06 1.49168 179.062 1.49168C179.062 1.53445 179.062 1.55584 179.062 1.59861C179.04 5.96115 178.054 10.2382 176.359 13.9805C177.239 13.8522 178.14 13.7881 179.062 13.7881C189.272 13.7881 197.551 22.0427 197.551 32.222C197.637 32.222 197.379 34.7454 197.336 34.9806ZM209.562 1.81246C207.16 -0.582668 203.256 -0.582668 200.854 1.81246C198.452 4.20758 198.452 8.09965 200.854 10.4948C203.256 12.8899 207.16 12.8899 209.562 10.4948C211.964 8.09965 211.964 4.20758 209.562 1.81246Z" fill="url(#paint3_linear_52_1131)"/>
<path fill-rule="evenodd" clip-rule="evenodd" d="M209.565 62.6314C211.967 60.2363 211.967 56.3442 209.565 53.9491C207.162 51.554 203.259 51.554 200.856 53.9491C198.454 56.3442 198.454 60.2363 200.856 62.6314C203.259 65.0479 207.162 65.0479 209.565 62.6314ZM209.865 32.3289C205.404 32.3289 201.157 33.2698 197.339 34.9806C190.432 38.06 184.856 43.5774 181.746 50.4634C180.03 54.2485 179.043 58.5469 179.043 62.9522C183.504 62.9522 187.751 62.0113 191.569 60.3005C192.77 52.3025 199.119 45.9939 207.162 44.8177C208.9 41.0112 209.865 36.7769 209.865 32.3289Z" fill="url(#paint4_linear_52_1131)"/>
<path fill-rule="evenodd" clip-rule="evenodd" d="M179.04 1.4917C184.038 1.4917 188.757 2.68926 192.939 4.78499L183.394 14.3013C182 13.9592 180.542 13.7881 179.04 13.7881C179.04 13.7025 176.509 13.9592 176.273 14.0019C177.989 10.174 178.933 5.96117 178.933 1.4917C178.976 1.4917 179.019 1.4917 179.04 1.4917Z" fill="url(#paint5_linear_52_1131)"/>
<path d="M35.0755 77.1378V78.4948H30.1765V91.4438H27.0945V78.4948H22.2185V77.1378H35.0755ZM40.6225 78.4948V84.9578H46.1885C46.4798 84.9578 46.6715 84.9118 46.7635 84.8198C46.8555 84.7278 46.9015 84.5362 46.9015 84.2448V79.2078C46.9015 78.9012 46.8555 78.7095 46.7635 78.6328C46.6715 78.5408 46.4798 78.4948 46.1885 78.4948H40.6225ZM40.6225 86.3148V91.4438H37.5405V77.1378H48.1435C49.3548 77.1378 49.9605 77.7435 49.9605 78.9548V84.4978C49.9605 85.7092 49.3548 86.3148 48.1435 86.3148H46.9245L50.1675 91.4438H46.9705L43.8425 86.3148H40.6225ZM65.72 78.9548V89.6268C65.72 90.8382 65.1143 91.4438 63.903 91.4438H55.485C54.2736 91.4438 53.668 90.8382 53.668 89.6268V78.9548C53.668 77.7435 54.2736 77.1378 55.485 77.1378H63.903C65.1143 77.1378 65.72 77.7435 65.72 78.9548ZM62.661 89.3738V79.2078C62.661 78.9012 62.615 78.7095 62.523 78.6328C62.4463 78.5408 62.2546 78.4948 61.948 78.4948H57.463C57.1716 78.4948 56.98 78.5408 56.888 78.6328C56.796 78.7095 56.75 78.9012 56.75 79.2078V89.3738C56.75 89.6805 56.796 89.8798 56.888 89.9718C56.98 90.0485 57.1716 90.0868 57.463 90.0868H61.948C62.2546 90.0868 62.4463 90.0485 62.523 89.9718C62.615 89.8798 62.661 89.6805 62.661 89.3738ZM72.5646 91.4438H69.8276V77.1378H73.1396L77.9006 86.2688L82.8456 77.1378H86.1346V91.4438H83.3976V80.3348L79.0736 88.3388H76.7736L72.5646 80.3348V91.4438ZM98.9162 89.3738V85.6248C98.9162 85.3335 98.8702 85.1418 98.7782 85.0498C98.7015 84.9578 98.5098 84.9118 98.2032 84.9118H91.8092C90.5978 84.9118 89.9922 84.3062 89.9922 83.0948V78.9548C89.9922 77.7435 90.5978 77.1378 91.8092 77.1378H100.112C101.323 77.1378 101.929 77.7435 101.929 78.9548V81.4158H98.8242V79.2078C98.8242 78.9012 98.7782 78.7095 98.6862 78.6328C98.6095 78.5408 98.4178 78.4948 98.1112 78.4948H93.8102C93.5188 78.4948 93.3272 78.5408 93.2352 78.6328C93.1432 78.7095 93.0972 78.9012 93.0972 79.2078V82.8418C93.0972 83.1485 93.1432 83.3478 93.2352 83.4398C93.3272 83.5165 93.5188 83.5548 93.8102 83.5548H100.181C101.392 83.5548 101.998 84.1605 101.998 85.3718V89.6268C101.998 90.8382 101.392 91.4438 100.181 91.4438H91.8782C90.6668 91.4438 90.0612 90.8382 90.0612 89.6268V87.1658H93.1432V89.3738C93.1432 89.6805 93.1892 89.8798 93.2812 89.9718C93.3732 90.0485 93.5648 90.0868 93.8562 90.0868H98.2032C98.5098 90.0868 98.7015 90.0485 98.7782 89.9718C98.8702 89.8798 98.9162 89.6805 98.9162 89.3738ZM115.18 89.4198V81.1858L108.855 89.9028C108.917 90.0562 109.131 90.1328 109.499 90.1328H114.444C114.751 90.1328 114.95 90.0945 115.042 90.0178C115.134 89.9258 115.18 89.7265 115.18 89.4198ZM108.786 79.1618V87.4878L115.157 78.7708C115.096 78.5562 114.858 78.4488 114.444 78.4488H109.499C109.193 78.4488 108.993 78.4948 108.901 78.5868C108.825 78.6635 108.786 78.8552 108.786 79.1618ZM118.147 78.9548V89.6268C118.147 90.8382 117.542 91.4438 116.33 91.4438H107.728L107.268 92.0648H105.451L106.256 90.9608C105.98 90.6695 105.842 90.2248 105.842 89.6268V78.9548C105.842 77.7435 106.448 77.1378 107.659 77.1378H116.33L116.79 76.5168H118.584L117.756 77.6438C118.017 77.9812 118.147 78.4182 118.147 78.9548ZM137.43 89.3738V85.6248C137.43 85.3335 137.384 85.1418 137.292 85.0498C137.216 84.9578 137.024 84.9118 136.717 84.9118H130.323C129.112 84.9118 128.506 84.3062 128.506 83.0948V78.9548C128.506 77.7435 129.112 77.1378 130.323 77.1378H138.626C139.838 77.1378 140.443 77.7435 140.443 78.9548V81.4158H137.338V79.2078C137.338 78.9012 137.292 78.7095 137.2 78.6328C137.124 78.5408 136.932 78.4948 136.625 78.4948H132.324C132.033 78.4948 131.841 78.5408 131.749 78.6328C131.657 78.7095 131.611 78.9012 131.611 79.2078V82.8418C131.611 83.1485 131.657 83.3478 131.749 83.4398C131.841 83.5165 132.033 83.5548 132.324 83.5548H138.695C139.907 83.5548 140.512 84.1605 140.512 85.3718V89.6268C140.512 90.8382 139.907 91.4438 138.695 91.4438H130.392C129.181 91.4438 128.575 90.8382 128.575 89.6268V87.1658H131.657V89.3738C131.657 89.6805 131.703 89.8798 131.795 89.9718C131.887 90.0485 132.079 90.0868 132.37 90.0868H136.717C137.024 90.0868 137.216 90.0485 137.292 89.9718C137.384 89.8798 137.43 89.6805 137.43 89.3738ZM156.339 82.0828H153.234V79.2078C153.234 78.9012 153.188 78.7095 153.096 78.6328C153.02 78.5408 152.828 78.4948 152.521 78.4948H148.013C147.707 78.4948 147.507 78.5408 147.415 78.6328C147.339 78.7095 147.3 78.9012 147.3 79.2078V89.3738C147.3 89.6805 147.339 89.8798 147.415 89.9718C147.507 90.0485 147.707 90.0868 148.013 90.0868H152.521C152.828 90.0868 153.02 90.0485 153.096 89.9718C153.188 89.8798 153.234 89.6805 153.234 89.3738V86.4988H156.339V89.6268C156.339 90.8382 155.734 91.4438 154.522 91.4438H146.012C144.801 91.4438 144.195 90.8382 144.195 89.6268V78.9548C144.195 77.7435 144.801 77.1378 146.012 77.1378H154.522C155.734 77.1378 156.339 77.7435 156.339 78.9548V82.0828ZM160.09 77.1378H163.264V91.4438H160.09V77.1378ZM170.947 90.0868H178.583V91.4438H167.773V77.1378H178.261V78.4948H170.947V83.4398H177.318V84.7968H170.947V90.0868ZM191.706 77.1378H194.535V91.4438H191.729L184.668 80.2888V91.4438H181.839V77.1378H184.737L191.706 88.2468V77.1378ZM210.806 82.0828H207.701V79.2078C207.701 78.9012 207.655 78.7095 207.563 78.6328C207.487 78.5408 207.295 78.4948 206.988 78.4948H202.48C202.174 78.4948 201.974 78.5408 201.882 78.6328C201.806 78.7095 201.767 78.9012 201.767 79.2078V89.3738C201.767 89.6805 201.806 89.8798 201.882 89.9718C201.974 90.0485 202.174 90.0868 202.48 90.0868H206.988C207.295 90.0868 207.487 90.0485 207.563 89.9718C207.655 89.8798 207.701 89.6805 207.701 89.3738V86.4988H210.806V89.6268C210.806 90.8382 210.201 91.4438 208.989 91.4438H200.479C199.268 91.4438 198.662 90.8382 198.662 89.6268V78.9548C198.662 77.7435 199.268 77.1378 200.479 77.1378H208.989C210.201 77.1378 210.806 77.7435 210.806 78.9548V82.0828ZM217.547 90.0868H225.183V91.4438H214.373V77.1378H224.861V78.4948H217.547V83.4398H223.918V84.7968H217.547V90.0868ZM237.717 91.4438H234.98V77.1378H238.292L243.053 86.2688L247.998 77.1378H251.287V91.4438H248.55V80.3348L244.226 88.3388H241.926L237.717 80.3348V91.4438ZM258.48 77.1378V89.3738C258.48 89.6805 258.526 89.8798 258.618 89.9718C258.71 90.0485 258.901 90.0868 259.193 90.0868H263.977C264.268 90.0868 264.46 90.0485 264.552 89.9718C264.644 89.8798 264.69 89.6805 264.69 89.3738V77.1378H267.749V89.6268C267.749 90.8382 267.143 91.4438 265.932 91.4438H257.215C256.003 91.4438 255.398 90.8382 255.398 89.6268V77.1378H258.48ZM280.336 89.3738V85.6248C280.336 85.3335 280.29 85.1418 280.198 85.0498C280.121 84.9578 279.93 84.9118 279.623 84.9118H273.229C272.018 84.9118 271.412 84.3062 271.412 83.0948V78.9548C271.412 77.7435 272.018 77.1378 273.229 77.1378H281.532C282.743 77.1378 283.349 77.7435 283.349 78.9548V81.4158H280.244V79.2078C280.244 78.9012 280.198 78.7095 280.106 78.6328C280.029 78.5408 279.838 78.4948 279.531 78.4948H275.23C274.939 78.4948 274.747 78.5408 274.655 78.6328C274.563 78.7095 274.517 78.9012 274.517 79.2078V82.8418C274.517 83.1485 274.563 83.3478 274.655 83.4398C274.747 83.5165 274.939 83.5548 275.23 83.5548H281.601C282.812 83.5548 283.418 84.1605 283.418 85.3718V89.6268C283.418 90.8382 282.812 91.4438 281.601 91.4438H273.298C272.087 91.4438 271.481 90.8382 271.481 89.6268V87.1658H274.563V89.3738C274.563 89.6805 274.609 89.8798 274.701 89.9718C274.793 90.0485 274.985 90.0868 275.276 90.0868H279.623C279.93 90.0868 280.121 90.0485 280.198 89.9718C280.29 89.8798 280.336 89.6805 280.336 89.3738ZM290.482 90.0868H298.118V91.4438H287.308V77.1378H297.796V78.4948H290.482V83.4398H296.853V84.7968H290.482V90.0868ZM304.249 77.1378V89.3738C304.249 89.6805 304.295 89.8798 304.387 89.9718C304.479 90.0485 304.671 90.0868 304.962 90.0868H309.746C310.037 90.0868 310.229 90.0485 310.321 89.9718C310.413 89.8798 310.459 89.6805 310.459 89.3738V77.1378H313.518V89.6268C313.518 90.8382 312.912 91.4438 311.701 91.4438H302.984C301.773 91.4438 301.167 90.8382 301.167 89.6268V77.1378H304.249ZM320.378 91.4438H317.641V77.1378H320.953L325.714 86.2688L330.659 77.1378H333.948V91.4438H331.211V80.3348L326.887 88.3388H324.587L320.378 80.3348V91.4438Z" fill="white"/>
<path d="M153.773 111.444V103.164H159.173V104.076H154.781V106.644H158.813V107.556H154.781V110.532H159.173V111.444H153.773ZM160.611 111.024V110.532H164.307C164.851 110.532 165.123 110.26 165.123 109.716V108.744C165.123 108.288 164.919 108.02 164.511 107.94L161.931 107.412C161.051 107.236 160.611 106.648 160.611 105.648V105C160.611 103.776 161.223 103.164 162.447 103.164H165.351L165.891 103.584V104.076H162.435C161.891 104.076 161.619 104.348 161.619 104.892V105.708C161.619 106.164 161.823 106.432 162.231 106.512L164.811 107.028C165.691 107.204 166.131 107.796 166.131 108.804V109.608C166.131 110.832 165.519 111.444 164.295 111.444H161.151L160.611 111.024ZM167.26 104.076V103.164H173.788V104.076H171.028V111.444H170.02V104.076H167.26ZM177.965 111.444V108.924C177.965 107.916 178.405 107.324 179.285 107.148L181.745 106.656C182.153 106.576 182.357 106.308 182.357 105.852V104.892C182.357 104.348 182.085 104.076 181.541 104.076H178.205V103.584L178.745 103.164H181.529C182.753 103.164 183.365 103.776 183.365 105V105.78C183.365 106.788 182.925 107.38 182.045 107.556L179.585 108.048C179.177 108.128 178.973 108.396 178.973 108.852V110.532H183.365V111.444H177.965ZM185.022 109.608V105C185.022 103.776 185.634 103.164 186.858 103.164H188.586C189.81 103.164 190.422 103.776 190.422 105V109.608C190.422 110.832 189.81 111.444 188.586 111.444H186.858C185.634 111.444 185.022 110.832 185.022 109.608ZM186.03 109.716C186.03 110.26 186.302 110.532 186.846 110.532H188.598C189.142 110.532 189.414 110.26 189.414 109.716V104.892C189.414 104.348 189.142 104.076 188.598 104.076H186.846C186.302 104.076 186.03 104.348 186.03 104.892V109.716ZM192.08 111.444V108.924C192.08 107.916 192.52 107.324 193.4 107.148L195.86 106.656C196.268 106.576 196.472 106.308 196.472 105.852V104.892C196.472 104.348 196.2 104.076 195.656 104.076H192.32V103.584L192.86 103.164H195.644C196.868 103.164 197.48 103.776 197.48 105V105.78C197.48 106.788 197.04 107.38 196.16 107.556L193.7 108.048C193.292 108.128 193.088 108.396 193.088 108.852V110.532H197.48V111.444H192.08ZM199.257 111.024V110.532H202.713C203.257 110.532 203.529 110.26 203.529 109.716V108.372C203.529 107.828 203.257 107.556 202.713 107.556H200.145V106.644H202.713C203.257 106.644 203.529 106.372 203.529 105.828V104.892C203.529 104.348 203.257 104.076 202.713 104.076H199.377V103.584L199.917 103.164H202.701C203.925 103.164 204.537 103.776 204.537 105V105.876C204.537 106.196 204.437 106.456 204.237 106.656L203.817 107.076L204.237 107.496C204.437 107.696 204.537 107.956 204.537 108.276V109.608C204.537 110.832 203.925 111.444 202.701 111.444H199.797L199.257 111.024Z" fill="white"/>
<defs>
<linearGradient id="paint0_linear_52_1131" x1="158.271" y1="52.7711" x2="170.875" y2="40.1335" gradientUnits="userSpaceOnUse">
<stop stop-color="#EDB439"/>
<stop offset="0.6196" stop-color="#EFC749"/>
<stop offset="1" stop-color="#F2DA59"/>
</linearGradient>
<linearGradient id="paint1_linear_52_1131" x1="156.933" y1="27.1791" x2="164.797" y2="-2.25847" gradientUnits="userSpaceOnUse">
<stop stop-color="#DB3066"/>
<stop offset="1" stop-color="#EF774C"/>
</linearGradient>
<linearGradient id="paint2_linear_52_1131" x1="171.921" y1="54.9975" x2="183.36" y2="58.0726" gradientUnits="userSpaceOnUse">
<stop stop-color="#EDB439"/>
<stop offset="0.4" stop-color="#776C3C"/>
<stop offset="1" stop-color="#012340"/>
</linearGradient>
<linearGradient id="paint3_linear_52_1131" x1="196.878" y1="11.8446" x2="209.482" y2="24.4822" gradientUnits="userSpaceOnUse">
<stop stop-color="#C0EB83"/>
<stop offset="0.6196" stop-color="#BEE08E"/>
<stop offset="1" stop-color="#BBD499"/>
</linearGradient>
<linearGradient id="paint4_linear_52_1131" x1="201.066" y1="37.2648" x2="193.202" y2="66.7002" gradientUnits="userSpaceOnUse">
<stop stop-color="#0693C9"/>
<stop offset="1" stop-color="#99EFF6"/>
</linearGradient>
<linearGradient id="paint5_linear_52_1131" x1="186.075" y1="9.4465" x2="174.636" y2="6.37139" gradientUnits="userSpaceOnUse">
<stop stop-color="#C0EB83"/>
<stop offset="0.4" stop-color="#618762"/>
<stop offset="1" stop-color="#012340"/>
</linearGradient>
</defs>
</svg>
