<svg width="314" height="117" viewBox="0 0 314 117" fill="none" xmlns="http://www.w3.org/2000/svg">
<g filter="url(#filter0_d_107_4391)">
<path fill-rule="evenodd" clip-rule="evenodd" d="M138.66 29.4629C134.821 31.1737 130.596 32.1146 126.113 32.1146C126.113 32.1574 126.113 32.1788 126.113 32.2216C126.113 37.2043 127.314 41.909 129.416 46.0791C132.998 45.6727 136.73 46.8489 139.497 49.6076C142.264 52.3449 143.422 56.0659 143.036 59.6585C147.218 61.7757 151.937 62.9518 156.935 62.9518C156.935 62.9091 156.935 62.8877 156.935 62.8449C156.956 58.4824 157.943 54.2054 159.637 50.463C158.758 50.5913 157.857 50.6555 156.935 50.6555C146.725 50.6555 138.446 42.4008 138.446 32.2216C138.36 32.2216 138.617 29.6981 138.66 29.4629ZM126.435 62.6311C128.837 65.0262 132.74 65.0262 135.143 62.6311C137.545 60.2359 137.545 56.3439 135.143 53.9487C132.74 51.5536 128.837 51.5536 126.435 53.9487C124.032 56.3439 124.032 60.2359 126.435 62.6311Z" fill="url(#paint0_linear_107_4391)"/>
<path fill-rule="evenodd" clip-rule="evenodd" d="M126.435 1.81238C124.032 4.2075 124.032 8.09958 126.435 10.4947C128.837 12.8898 132.74 12.8898 135.143 10.4947C137.545 8.09958 137.545 4.2075 135.143 1.81238C132.74 -0.604127 128.837 -0.604127 126.435 1.81238ZM126.134 32.115C130.596 32.115 134.842 31.174 138.66 29.4632C145.567 26.3838 151.144 20.8664 154.254 13.9805C155.97 10.1953 156.956 5.89692 156.956 1.49161C152.495 1.49161 148.248 2.43255 144.43 4.14335C143.229 12.1413 136.88 18.4499 128.837 19.6261C127.099 23.4326 126.134 27.6669 126.134 32.115Z" fill="url(#paint1_linear_107_4391)"/>
<path fill-rule="evenodd" clip-rule="evenodd" d="M156.934 62.9522C151.936 62.9522 147.218 61.7546 143.035 59.6589L152.58 50.1426C153.974 50.4847 155.433 50.6558 156.934 50.6558C156.934 50.7414 159.465 50.4847 159.701 50.442C157.985 54.2699 157.041 58.4827 157.041 62.9522C157.02 62.9522 156.977 62.9522 156.934 62.9522Z" fill="url(#paint2_linear_107_4391)"/>
<path fill-rule="evenodd" clip-rule="evenodd" d="M175.338 34.9801C179.178 33.2693 183.403 32.3284 187.886 32.3284C187.886 32.2856 187.886 32.2642 187.886 32.2215C187.886 27.2388 186.685 22.5341 184.583 18.364C181.001 18.7703 177.269 17.5941 174.502 14.8354C171.735 12.0982 170.577 8.37717 170.963 4.78448C166.78 2.66737 162.061 1.49119 157.064 1.49119C157.064 1.53396 157.064 1.55535 157.064 1.59812C157.042 5.96066 156.056 10.2377 154.361 13.98C155.241 13.8517 156.142 13.7876 157.064 13.7876C167.274 13.7876 175.553 22.0422 175.553 32.2215C175.639 32.2215 175.381 34.7449 175.338 34.9801ZM187.564 1.81197C185.162 -0.583156 181.258 -0.583156 178.856 1.81197C176.454 4.20709 176.454 8.09916 178.856 10.4943C181.258 12.8894 185.162 12.8894 187.564 10.4943C189.966 8.09916 189.966 4.20709 187.564 1.81197Z" fill="url(#paint3_linear_107_4391)"/>
<path fill-rule="evenodd" clip-rule="evenodd" d="M187.565 62.6307C189.967 60.2356 189.967 56.3435 187.565 53.9484C185.162 51.5533 181.259 51.5533 178.856 53.9484C176.454 56.3435 176.454 60.2356 178.856 62.6307C181.259 65.0472 185.162 65.0472 187.565 62.6307ZM187.865 32.3281C183.404 32.3281 179.157 33.2691 175.339 34.9799C168.432 38.0593 162.856 43.5766 159.746 50.4626C158.03 54.2478 157.043 58.5462 157.043 62.9515C161.504 62.9515 165.751 62.0105 169.569 60.2997C170.77 52.3017 177.119 45.9932 185.162 44.817C186.9 41.0104 187.865 36.7762 187.865 32.3281Z" fill="url(#paint4_linear_107_4391)"/>
<path fill-rule="evenodd" clip-rule="evenodd" d="M157.042 1.49219C162.04 1.49219 166.759 2.68975 170.941 4.78548L161.396 14.3018C160.002 13.9597 158.544 13.7886 157.042 13.7886C157.042 13.703 154.511 13.9597 154.275 14.0024C155.991 10.1745 156.935 5.96166 156.935 1.49219C156.978 1.49219 157.021 1.49219 157.042 1.49219Z" fill="url(#paint5_linear_107_4391)"/>
</g>
<path d="M13.0755 77.1374V78.4944H8.17652V91.4434H5.09452V78.4944H0.21852V77.1374H13.0755ZM18.6225 78.4944V84.9574H24.1885C24.4798 84.9574 24.6715 84.9114 24.7635 84.8194C24.8555 84.7274 24.9015 84.5357 24.9015 84.2444V79.2074C24.9015 78.9007 24.8555 78.709 24.7635 78.6324C24.6715 78.5404 24.4798 78.4944 24.1885 78.4944H18.6225ZM18.6225 86.3144V91.4434H15.5405V77.1374H26.1435C27.3548 77.1374 27.9605 77.743 27.9605 78.9544V84.4974C27.9605 85.7087 27.3548 86.3144 26.1435 86.3144H24.9245L28.1675 91.4434H24.9705L21.8425 86.3144H18.6225ZM43.72 78.9544V89.6264C43.72 90.8377 43.1143 91.4434 41.903 91.4434H33.485C32.2736 91.4434 31.668 90.8377 31.668 89.6264V78.9544C31.668 77.743 32.2736 77.1374 33.485 77.1374H41.903C43.1143 77.1374 43.72 77.743 43.72 78.9544ZM40.661 89.3734V79.2074C40.661 78.9007 40.615 78.709 40.523 78.6324C40.4463 78.5404 40.2546 78.4944 39.948 78.4944H35.463C35.1716 78.4944 34.98 78.5404 34.888 78.6324C34.796 78.709 34.75 78.9007 34.75 79.2074V89.3734C34.75 89.68 34.796 89.8794 34.888 89.9714C34.98 90.048 35.1716 90.0864 35.463 90.0864H39.948C40.2546 90.0864 40.4463 90.048 40.523 89.9714C40.615 89.8794 40.661 89.68 40.661 89.3734ZM50.5646 91.4434H47.8276V77.1374H51.1396L55.9006 86.2684L60.8456 77.1374H64.1346V91.4434H61.3976V80.3344L57.0736 88.3384H54.7736L50.5646 80.3344V91.4434ZM76.9162 89.3734V85.6244C76.9162 85.333 76.8702 85.1414 76.7782 85.0494C76.7015 84.9574 76.5098 84.9114 76.2032 84.9114H69.8092C68.5978 84.9114 67.9922 84.3057 67.9922 83.0944V78.9544C67.9922 77.743 68.5978 77.1374 69.8092 77.1374H78.1122C79.3235 77.1374 79.9292 77.743 79.9292 78.9544V81.4154H76.8242V79.2074C76.8242 78.9007 76.7782 78.709 76.6862 78.6324C76.6095 78.5404 76.4178 78.4944 76.1112 78.4944H71.8102C71.5188 78.4944 71.3272 78.5404 71.2352 78.6324C71.1432 78.709 71.0972 78.9007 71.0972 79.2074V82.8414C71.0972 83.148 71.1432 83.3474 71.2352 83.4394C71.3272 83.516 71.5188 83.5544 71.8102 83.5544H78.1812C79.3925 83.5544 79.9982 84.16 79.9982 85.3714V89.6264C79.9982 90.8377 79.3925 91.4434 78.1812 91.4434H69.8782C68.6668 91.4434 68.0612 90.8377 68.0612 89.6264V87.1654H71.1432V89.3734C71.1432 89.68 71.1892 89.8794 71.2812 89.9714C71.3732 90.048 71.5648 90.0864 71.8562 90.0864H76.2032C76.5098 90.0864 76.7015 90.048 76.7782 89.9714C76.8702 89.8794 76.9162 89.68 76.9162 89.3734ZM93.1802 89.4194V81.1854L86.8552 89.9024C86.9165 90.0557 87.1312 90.1324 87.4992 90.1324H92.4442C92.7509 90.1324 92.9502 90.094 93.0422 90.0174C93.1342 89.9254 93.1802 89.726 93.1802 89.4194ZM86.7862 79.1614V87.4874L93.1572 78.7704C93.0959 78.5557 92.8582 78.4484 92.4442 78.4484H87.4992C87.1925 78.4484 86.9932 78.4944 86.9012 78.5864C86.8245 78.663 86.7862 78.8547 86.7862 79.1614ZM96.1472 78.9544V89.6264C96.1472 90.8377 95.5415 91.4434 94.3302 91.4434H85.7282L85.2682 92.0644H83.4512L84.2562 90.9604C83.9802 90.669 83.8422 90.2244 83.8422 89.6264V78.9544C83.8422 77.743 84.4479 77.1374 85.6592 77.1374H94.3302L94.7902 76.5164H96.5842L95.7562 77.6434C96.0169 77.9807 96.1472 78.4177 96.1472 78.9544ZM115.43 89.3734V85.6244C115.43 85.333 115.384 85.1414 115.292 85.0494C115.216 84.9574 115.024 84.9114 114.717 84.9114H108.323C107.112 84.9114 106.506 84.3057 106.506 83.0944V78.9544C106.506 77.743 107.112 77.1374 108.323 77.1374H116.626C117.838 77.1374 118.443 77.743 118.443 78.9544V81.4154H115.338V79.2074C115.338 78.9007 115.292 78.709 115.2 78.6324C115.124 78.5404 114.932 78.4944 114.625 78.4944H110.324C110.033 78.4944 109.841 78.5404 109.749 78.6324C109.657 78.709 109.611 78.9007 109.611 79.2074V82.8414C109.611 83.148 109.657 83.3474 109.749 83.4394C109.841 83.516 110.033 83.5544 110.324 83.5544H116.695C117.907 83.5544 118.512 84.16 118.512 85.3714V89.6264C118.512 90.8377 117.907 91.4434 116.695 91.4434H108.392C107.181 91.4434 106.575 90.8377 106.575 89.6264V87.1654H109.657V89.3734C109.657 89.68 109.703 89.8794 109.795 89.9714C109.887 90.048 110.079 90.0864 110.37 90.0864H114.717C115.024 90.0864 115.216 90.048 115.292 89.9714C115.384 89.8794 115.43 89.68 115.43 89.3734ZM134.339 82.0824H131.234V79.2074C131.234 78.9007 131.188 78.709 131.096 78.6324C131.02 78.5404 130.828 78.4944 130.521 78.4944H126.013C125.707 78.4944 125.507 78.5404 125.415 78.6324C125.339 78.709 125.3 78.9007 125.3 79.2074V89.3734C125.3 89.68 125.339 89.8794 125.415 89.9714C125.507 90.048 125.707 90.0864 126.013 90.0864H130.521C130.828 90.0864 131.02 90.048 131.096 89.9714C131.188 89.8794 131.234 89.68 131.234 89.3734V86.4984H134.339V89.6264C134.339 90.8377 133.734 91.4434 132.522 91.4434H124.012C122.801 91.4434 122.195 90.8377 122.195 89.6264V78.9544C122.195 77.743 122.801 77.1374 124.012 77.1374H132.522C133.734 77.1374 134.339 77.743 134.339 78.9544V82.0824ZM138.09 77.1374H141.264V91.4434H138.09V77.1374ZM148.947 90.0864H156.583V91.4434H145.773V77.1374H156.261V78.4944H148.947V83.4394H155.318V84.7964H148.947V90.0864ZM169.706 77.1374H172.535V91.4434H169.729L162.668 80.2884V91.4434H159.839V77.1374H162.737L169.706 88.2464V77.1374ZM188.806 82.0824H185.701V79.2074C185.701 78.9007 185.655 78.709 185.563 78.6324C185.487 78.5404 185.295 78.4944 184.988 78.4944H180.48C180.174 78.4944 179.974 78.5404 179.882 78.6324C179.806 78.709 179.767 78.9007 179.767 79.2074V89.3734C179.767 89.68 179.806 89.8794 179.882 89.9714C179.974 90.048 180.174 90.0864 180.48 90.0864H184.988C185.295 90.0864 185.487 90.048 185.563 89.9714C185.655 89.8794 185.701 89.68 185.701 89.3734V86.4984H188.806V89.6264C188.806 90.8377 188.201 91.4434 186.989 91.4434H178.479C177.268 91.4434 176.662 90.8377 176.662 89.6264V78.9544C176.662 77.743 177.268 77.1374 178.479 77.1374H186.989C188.201 77.1374 188.806 77.743 188.806 78.9544V82.0824ZM195.547 90.0864H203.183V91.4434H192.373V77.1374H202.861V78.4944H195.547V83.4394H201.918V84.7964H195.547V90.0864ZM215.717 91.4434H212.98V77.1374H216.292L221.053 86.2684L225.998 77.1374H229.287V91.4434H226.55V80.3344L222.226 88.3384H219.926L215.717 80.3344V91.4434ZM236.48 77.1374V89.3734C236.48 89.68 236.526 89.8794 236.618 89.9714C236.71 90.048 236.901 90.0864 237.193 90.0864H241.977C242.268 90.0864 242.46 90.048 242.552 89.9714C242.644 89.8794 242.69 89.68 242.69 89.3734V77.1374H245.749V89.6264C245.749 90.8377 245.143 91.4434 243.932 91.4434H235.215C234.003 91.4434 233.398 90.8377 233.398 89.6264V77.1374H236.48ZM258.336 89.3734V85.6244C258.336 85.333 258.29 85.1414 258.198 85.0494C258.121 84.9574 257.93 84.9114 257.623 84.9114H251.229C250.018 84.9114 249.412 84.3057 249.412 83.0944V78.9544C249.412 77.743 250.018 77.1374 251.229 77.1374H259.532C260.743 77.1374 261.349 77.743 261.349 78.9544V81.4154H258.244V79.2074C258.244 78.9007 258.198 78.709 258.106 78.6324C258.029 78.5404 257.838 78.4944 257.531 78.4944H253.23C252.939 78.4944 252.747 78.5404 252.655 78.6324C252.563 78.709 252.517 78.9007 252.517 79.2074V82.8414C252.517 83.148 252.563 83.3474 252.655 83.4394C252.747 83.516 252.939 83.5544 253.23 83.5544H259.601C260.812 83.5544 261.418 84.16 261.418 85.3714V89.6264C261.418 90.8377 260.812 91.4434 259.601 91.4434H251.298C250.087 91.4434 249.481 90.8377 249.481 89.6264V87.1654H252.563V89.3734C252.563 89.68 252.609 89.8794 252.701 89.9714C252.793 90.048 252.985 90.0864 253.276 90.0864H257.623C257.93 90.0864 258.121 90.048 258.198 89.9714C258.29 89.8794 258.336 89.68 258.336 89.3734ZM268.482 90.0864H276.118V91.4434H265.308V77.1374H275.796V78.4944H268.482V83.4394H274.853V84.7964H268.482V90.0864ZM282.249 77.1374V89.3734C282.249 89.68 282.295 89.8794 282.387 89.9714C282.479 90.048 282.671 90.0864 282.962 90.0864H287.746C288.037 90.0864 288.229 90.048 288.321 89.9714C288.413 89.8794 288.459 89.68 288.459 89.3734V77.1374H291.518V89.6264C291.518 90.8377 290.912 91.4434 289.701 91.4434H280.984C279.773 91.4434 279.167 90.8377 279.167 89.6264V77.1374H282.249ZM298.378 91.4434H295.641V77.1374H298.953L303.714 86.2684L308.659 77.1374H311.948V91.4434H309.211V80.3344L304.887 88.3384H302.587L298.378 80.3344V91.4434Z" fill="#E66800"/>
<path d="M131.773 111.443V103.163H137.173V104.075H132.781V106.643H136.813V107.555H132.781V110.531H137.173V111.443H131.773ZM138.611 111.023V110.531H142.307C142.851 110.531 143.123 110.259 143.123 109.715V108.743C143.123 108.287 142.919 108.019 142.511 107.939L139.931 107.411C139.051 107.235 138.611 106.647 138.611 105.647V104.999C138.611 103.775 139.223 103.163 140.447 103.163H143.351L143.891 103.583V104.075H140.435C139.891 104.075 139.619 104.347 139.619 104.891V105.707C139.619 106.163 139.823 106.431 140.231 106.511L142.811 107.027C143.691 107.203 144.131 107.795 144.131 108.803V109.607C144.131 110.831 143.519 111.443 142.295 111.443H139.151L138.611 111.023ZM145.26 104.075V103.163H151.788V104.075H149.028V111.443H148.02V104.075H145.26ZM155.965 111.443V108.923C155.965 107.915 156.405 107.323 157.285 107.147L159.745 106.655C160.153 106.575 160.357 106.307 160.357 105.851V104.891C160.357 104.347 160.085 104.075 159.541 104.075H156.205V103.583L156.745 103.163H159.529C160.753 103.163 161.365 103.775 161.365 104.999V105.779C161.365 106.787 160.925 107.379 160.045 107.555L157.585 108.047C157.177 108.127 156.973 108.395 156.973 108.851V110.531H161.365V111.443H155.965ZM163.022 109.607V104.999C163.022 103.775 163.634 103.163 164.858 103.163H166.586C167.81 103.163 168.422 103.775 168.422 104.999V109.607C168.422 110.831 167.81 111.443 166.586 111.443H164.858C163.634 111.443 163.022 110.831 163.022 109.607ZM164.03 109.715C164.03 110.259 164.302 110.531 164.846 110.531H166.598C167.142 110.531 167.414 110.259 167.414 109.715V104.891C167.414 104.347 167.142 104.075 166.598 104.075H164.846C164.302 104.075 164.03 104.347 164.03 104.891V109.715ZM170.08 111.443V108.923C170.08 107.915 170.52 107.323 171.4 107.147L173.86 106.655C174.268 106.575 174.472 106.307 174.472 105.851V104.891C174.472 104.347 174.2 104.075 173.656 104.075H170.32V103.583L170.86 103.163H173.644C174.868 103.163 175.48 103.775 175.48 104.999V105.779C175.48 106.787 175.04 107.379 174.16 107.555L171.7 108.047C171.292 108.127 171.088 108.395 171.088 108.851V110.531H175.48V111.443H170.08ZM177.257 111.023V110.531H180.713C181.257 110.531 181.529 110.259 181.529 109.715V108.371C181.529 107.827 181.257 107.555 180.713 107.555H178.145V106.643H180.713C181.257 106.643 181.529 106.371 181.529 105.827V104.891C181.529 104.347 181.257 104.075 180.713 104.075H177.377V103.583L177.917 103.163H180.701C181.925 103.163 182.537 103.775 182.537 104.999V105.875C182.537 106.195 182.437 106.455 182.237 106.655L181.817 107.075L182.237 107.495C182.437 107.695 182.537 107.955 182.537 108.275V109.607C182.537 110.831 181.925 111.443 180.701 111.443H177.797L177.257 111.023Z" fill="#E66800"/>
<defs>
<filter id="filter0_d_107_4391" x="120.633" y="0" width="72.7344" height="72.4434" filterUnits="userSpaceOnUse" color-interpolation-filters="sRGB">
<feFlood flood-opacity="0" result="BackgroundImageFix"/>
<feColorMatrix in="SourceAlpha" type="matrix" values="0 0 0 0 0 0 0 0 0 0 0 0 0 0 0 0 0 0 127 0" result="hardAlpha"/>
<feOffset dy="4"/>
<feGaussianBlur stdDeviation="2"/>
<feComposite in2="hardAlpha" operator="out"/>
<feColorMatrix type="matrix" values="0 0 0 0 0 0 0 0 0 0 0 0 0 0 0 0 0 0 0.25 0"/>
<feBlend mode="normal" in2="BackgroundImageFix" result="effect1_dropShadow_107_4391"/>
<feBlend mode="normal" in="SourceGraphic" in2="effect1_dropShadow_107_4391" result="shape"/>
</filter>
<linearGradient id="paint0_linear_107_4391" x1="136.271" y1="52.7708" x2="148.875" y2="40.1332" gradientUnits="userSpaceOnUse">
<stop stop-color="#EDB439"/>
<stop offset="0.6196" stop-color="#EFC749"/>
<stop offset="1" stop-color="#F2DA59"/>
</linearGradient>
<linearGradient id="paint1_linear_107_4391" x1="134.933" y1="27.1791" x2="142.797" y2="-2.25847" gradientUnits="userSpaceOnUse">
<stop stop-color="#DB3066"/>
<stop offset="1" stop-color="#EF774C"/>
</linearGradient>
<linearGradient id="paint2_linear_107_4391" x1="149.921" y1="54.9975" x2="161.36" y2="58.0726" gradientUnits="userSpaceOnUse">
<stop stop-color="#EDB439"/>
<stop offset="0.4" stop-color="#776C3C"/>
<stop offset="1" stop-color="#012340"/>
</linearGradient>
<linearGradient id="paint3_linear_107_4391" x1="174.88" y1="11.8441" x2="187.484" y2="24.4818" gradientUnits="userSpaceOnUse">
<stop stop-color="#C0EB83"/>
<stop offset="0.6196" stop-color="#BEE08E"/>
<stop offset="1" stop-color="#BBD499"/>
</linearGradient>
<linearGradient id="paint4_linear_107_4391" x1="179.066" y1="37.2641" x2="171.202" y2="66.6995" gradientUnits="userSpaceOnUse">
<stop stop-color="#0693C9"/>
<stop offset="1" stop-color="#99EFF6"/>
</linearGradient>
<linearGradient id="paint5_linear_107_4391" x1="164.077" y1="9.44699" x2="152.638" y2="6.37188" gradientUnits="userSpaceOnUse">
<stop stop-color="#C0EB83"/>
<stop offset="0.4" stop-color="#618762"/>
<stop offset="1" stop-color="#012340"/>
</linearGradient>
</defs>
</svg>
