<svg width="42" height="55" viewBox="0 0 42 55" fill="none" xmlns="http://www.w3.org/2000/svg">
<path d="M8.92647 5.23242C8.14412 5.64908 8 6.06575 8 7.87825C8 14.5866 11.1294 21.6491 15.7618 25.4408C17.6559 26.9824 18.0676 27.2533 20.5588 28.6283C23.1324 30.0449 24.5941 31.1074 26.0971 32.6699C29.5147 36.2533 31.4706 41.3991 31.4706 46.8574C31.4706 48.9199 31.7588 49.4199 32.9529 49.4199C34.0235 49.4199 34.3529 48.7949 34.3529 46.6699C34.3529 39.9616 31.2235 32.8991 26.5912 29.1074C24.6971 27.5658 24.2853 27.2949 21.7941 25.9199C19.2206 24.5033 17.7588 23.4408 16.2559 21.8783C12.8382 18.2949 10.8824 13.1491 10.8824 7.69075C10.8824 6.23242 10.8206 5.81575 10.5324 5.56575C9.99706 5.08658 9.4 4.96158 8.92647 5.23242Z" fill="#E66800"/>
<path d="M32.5013 5.12857C31.6572 5.44107 31.4719 5.85774 31.4719 7.4619C31.4513 12.9202 29.5984 17.9411 26.2219 21.6286C24.966 23.0244 24.7601 23.8161 25.5013 24.5661C26.2837 25.3577 26.9425 25.1286 28.4043 23.5661C31.369 20.4619 33.2219 16.5869 34.0249 11.8577C34.3543 9.92024 34.4778 6.56607 34.2307 5.92024C34.1278 5.6494 33.0778 4.94107 32.8719 5.00357C32.8307 5.00357 32.666 5.06607 32.5013 5.12857Z" fill="#E66800"/>
<path d="M14.5264 9.94075C14.0528 10.4616 14.094 11.5658 14.5881 12.0658C14.9793 12.4616 15.2675 12.4824 21.1764 12.4824C27.0852 12.4824 27.3734 12.4616 27.7646 12.0658C28.2999 11.5241 28.2999 10.3783 27.8058 9.91992C27.4764 9.60742 26.694 9.56575 21.1352 9.56575C15.3087 9.56575 14.8352 9.58659 14.5264 9.94075Z" fill="#E66800"/>
<path d="M16.9561 15.9206C16.3384 16.5247 16.2973 17.3372 16.8532 17.8997C17.2443 18.2956 17.5326 18.3164 21.1767 18.3164C24.8208 18.3164 25.109 18.2956 25.5002 17.8997C26.0561 17.3372 26.0149 16.5247 25.3973 15.9206C24.9032 15.3997 24.862 15.3997 21.1767 15.3997C17.4914 15.3997 17.4502 15.3997 16.9561 15.9206Z" fill="#E66800"/>
<path d="M13.95 30.9616C12.3441 32.6491 11.5206 33.8366 10.4706 35.9824C8.90588 39.1699 8 43.0033 8 46.5658C8 48.7949 8.30882 49.4199 9.4 49.4199C10.5941 49.4199 10.8 49.0033 10.9441 46.2741C11.2118 40.8158 12.9 36.4199 16.0706 32.9616C17.3882 31.5241 17.5941 30.7324 16.8529 29.9824C16.0706 29.1908 15.4118 29.4199 13.95 30.9616Z" fill="#E66800"/>
<path d="M16.8532 36.6484C16.2973 37.2109 16.3384 38.0234 16.9561 38.6276C17.4502 39.1484 17.4914 39.1484 21.1767 39.1484C24.862 39.1484 24.9032 39.1484 25.3973 38.6276C26.0149 38.0234 26.0561 37.2109 25.5002 36.6484C25.109 36.2526 24.8208 36.2318 21.1767 36.2318C17.5326 36.2318 17.2443 36.2526 16.8532 36.6484Z" fill="#E66800"/>
<path d="M14.5884 42.4824C14.0531 43.0241 14.0531 44.1699 14.5472 44.6283C14.8766 44.9408 15.659 44.9824 21.2178 44.9824C27.0443 44.9824 27.5178 44.9616 27.8266 44.6074C28.3002 44.0866 28.259 42.9824 27.7649 42.4824C27.3737 42.0866 27.0855 42.0658 21.1766 42.0658C15.2678 42.0658 14.9796 42.0866 14.5884 42.4824Z" fill="#E66800"/>
</svg>
